<svg width="50" height="50" viewBox="0 0 50 50" fill="none" xmlns="http://www.w3.org/2000/svg">
<path d="M50 25C50 11.1765 38.8235 0 25 0C11.1765 0 0 11.1765 0 25C0 38.8235 11.1765 50 25 50C38.8235 50 50 38.8235 50 25ZM2.94118 25C2.94118 12.7941 12.7941 2.94118 25 2.94118C37.2059 2.94118 47.0588 12.7941 47.0588 25C47.0588 37.2059 37.2059 47.0588 25 47.0588C12.7941 47.0588 2.94118 37.2059 2.94118 25Z" fill="#EFE7DC"/>
<path d="M27.5003 37.2055L15.2944 24.9996L27.5003 12.7937L25.4415 10.7349L11.1768 24.9996L25.4415 39.2643L27.5003 37.2055Z" fill="#EFE7DC"/>
<path d="M13.2352 23.5295V26.4707H38.2352V23.5295H13.2352Z" fill="#EFE7DC"/>
</svg>
