<svg width="50" height="50" viewBox="0 0 50 50" fill="none" xmlns="http://www.w3.org/2000/svg">
<path d="M9.53674e-07 25C9.53674e-07 11.1765 11.1765 0 25 0C38.8235 0 50 11.1765 50 25C50 38.8235 38.8235 50 25 50C11.1765 50 9.53674e-07 38.8235 9.53674e-07 25ZM47.0588 25C47.0588 12.7941 37.2059 2.94118 25 2.94118C12.7941 2.94118 2.94118 12.7941 2.94118 25C2.94118 37.2059 12.7941 47.0588 25 47.0588C37.2059 47.0588 47.0588 37.2059 47.0588 25Z" fill="#EFE7DC"/>
<path d="M22.4997 37.2055L34.7056 24.9996L22.4997 12.7937L24.5585 10.7349L38.8232 24.9996L24.5585 39.2643L22.4997 37.2055Z" fill="#EFE7DC"/>
<path d="M36.7648 23.5295V26.4707H11.7648V23.5295H36.7648Z" fill="#EFE7DC"/>
</svg>
