<svg width="128" height="128" viewBox="0 0 128 128" fill="none" xmlns="http://www.w3.org/2000/svg">
<path d="M64 0C28.672 0 0 28.672 0 64C0 99.328 28.672 128 64 128C99.328 128 128 99.328 128 64C128 28.672 99.328 0 64 0ZM93.696 43.52C92.736 53.632 88.576 78.208 86.464 89.536C85.568 94.336 83.776 95.936 82.112 96.128C78.4 96.448 75.584 93.696 72 91.328C66.368 87.616 63.168 85.312 57.728 81.728C51.392 77.568 55.488 75.264 59.136 71.552C60.096 70.592 76.48 55.68 76.8 54.336C76.8445 54.1324 76.8385 53.9211 76.7828 53.7203C76.727 53.5196 76.6231 53.3355 76.48 53.184C76.096 52.864 75.584 52.992 75.136 53.056C74.56 53.184 65.6 59.136 48.128 70.912C45.568 72.64 43.264 73.536 41.216 73.472C38.912 73.408 34.56 72.192 31.296 71.104C27.264 69.824 24.128 69.12 24.384 66.88C24.512 65.728 26.112 64.576 29.12 63.36C47.808 55.232 60.224 49.856 66.432 47.296C84.224 39.872 87.872 38.592 90.304 38.592C90.816 38.592 92.032 38.72 92.8 39.36C93.44 39.872 93.632 40.576 93.696 41.088C93.632 41.472 93.76 42.624 93.696 43.52Z" fill="#EFE7DC"/>
</svg>
